<svg xmlns="http://www.w3.org/2000/svg" version="1.1" xmlns:xlink="http://www.w3.org/1999/xlink" xmlns:svgjs="http://svgjs.dev/svgjs" width="100%" height="100%" viewBox="0 0 1000 600"><rect width="1000" height="600" x="0" y="0" fill="#7daf9c"/><g><rect width="333.3333333333333" height="333.3333333333333" rx="13.333333333333334" ry="13.333333333333334" y="245.36877027355882" fill="#f7f7f9" transform="matrix(0.5601700495382153,0,0,0.5601700495382153,0,69.19009558896616)" x="223.1465301513672"/><path d="M407.7851107616741 376.36349262903684L407.7851107616741 376.36349262903684Q407.7851107616741 346.2974850680146 388.97604442018155 346.2974850680146L388.97604442018155 346.2974850680146Q384.8437495421263 346.2974850680146 381.60203545675546 346.6180941533809Q378.36032137138454 346.9743264704546 377.6834799689445 349.00485067777487L377.6834799689445 349.00485067777487Q376.29417393235695 351.7478395192426 376.29417393235695 362.6841716534058L376.29417393235695 362.6841716534058L376.29417393235695 402.36845177541863L388.2635797860341 402.36845177541863Q396.81315539580345 402.36845177541863 402.29913307873875 395.70690744614Q407.7851107616741 389.0453631168614 407.7851107616741 376.36349262903684ZM344.8388603347472 337.74790945824526L360.9049378347721 337.74790945824526L395.45947259092327 337.0354448240978Q413.5916975299758 337.0354448240978 426.23794478609295 345.2644113485008L426.23794478609295 345.2644113485008Q441.2709485666041 354.84706067778393 441.2709485666041 372.9436623851291L441.2709485666041 372.9436623851291Q441.2709485666041 389.72220451930144 423.17434685925895 400.302304336391L423.17434685925895 400.302304336391Q419.04205198120377 402.72468409249234 417.1896439324204 403.4015254949324Q415.30161265192964 404.07836689737246 415.30161265192964 404.43459921444617Q415.30161265192964 404.7552082998126 417.51025301778674 405.1114406168863Q419.75451661535124 405.43204970225264 426.0598286275561 407.99692238518344Q432.40076387146837 410.56179506811424 437.8511183226964 415.69154043397583L437.8511183226964 415.69154043397583Q451.88667161540104 427.6609462876529 451.88667161540104 442.72957329987145L451.88667161540104 442.72957329987145Q451.88667161540104 454.0221377511085 445.40324344465927 463.5691638486842Q438.88419204221015 473.15181317796737 428.6247013104869 479.13651610480593Q418.3652105787637 485.1212190316445 406.0751956397202 486.1542927511583Q393.74955746896944 487.1873664706721 385.5562141762738 487.00925031213524Q377.3272476518708 486.8311341535983 370.16697807868894 486.8311341535983L370.16697807868894 486.8311341535983Q349.29176429816874 486.8311341535983 328.4165505176486 486.8311341535983L328.4165505176486 486.8311341535983Q327.7397091152085 485.79806043408456 327.7397091152085 482.73446250725056Q327.7397091152085 479.6708645804165 328.4165505176486 478.6377908609027L328.4165505176486 478.6377908609027Q329.80585655423613 478.6377908609027 334.25876051765766 477.96094945846266L334.25876051765766 477.96094945846266Q341.7752624079132 476.92787573894884 343.1289452127933 474.5411192145549L343.1289452127933 474.5411192145549Q344.8388603347472 470.4088243364997 344.8388603347472 453.309673116961L344.8388603347472 453.309673116961L344.8388603347472 370.23629677536877Q344.8388603347472 353.81398695827016 343.1289452127933 349.00485067777487L343.1289452127933 349.00485067777487Q340.74218868839944 345.5850204338671 328.4165505176486 345.5850204338671L328.4165505176486 345.5850204338671Q327.7397091152085 344.231337628987 327.7397091152085 341.16773970215297Q327.7397091152085 338.06851854361156 328.4165505176486 337.0354448240978L328.4165505176486 337.0354448240978Q336.28928472497785 337.74790945824526 344.8388603347472 337.74790945824526L344.8388603347472 337.74790945824526ZM376.29417393235695 411.2742597022617L376.29417393235695 461.53863964136406Q376.29417393235695 472.1187394584536 378.00408905431084 474.36300305601804Q379.7140041762647 476.57164342187514 383.8462990543199 476.92787573894884Q387.94297070066773 477.2484848243152 392.2177585055524 477.2484848243152Q396.4925463104371 477.2484848243152 400.7673341153218 475.7166858608982Q405.04212192020645 474.1848868974812 408.46195216411417 470.4088243364997L408.46195216411417 470.4088243364997Q416.6552954568098 462.5717133608778 416.6552954568098 446.4700126291455L416.6552954568098 446.4700126291455Q416.6552954568098 422.887433238865 401.6222916762987 414.3378576290957L401.6222916762987 414.3378576290957Q396.13631399336333 411.2742597022617 388.2635797860341 411.2742597022617L388.2635797860341 411.2742597022617L376.29417393235695 411.2742597022617Z " fill="#23967f" transform="matrix(0.5601700495382153,0,0,0.5601700495382153,0,69.19009558896616)"/><path d="M698.5327024016582 370.38039428358866L698.5327024016582 370.38039428358866Q698.5327024016582 348.32464574098236 684.734793360786 348.32464574098236L684.734793360786 348.32464574098236Q681.703434556352 348.32464574098236 679.3253858390806 348.55983737236085Q676.9473371218089 348.82116140722593 676.4508214555655 350.3107084059564L676.4508214555655 350.3107084059564Q675.431657719592 352.32290347441693 675.431657719592 360.34555134477256L675.431657719592 360.34555134477256L675.431657719592 389.45704882873383L684.212145291056 389.45704882873383Q690.4839221278162 389.45704882873383 694.5083122647372 384.5702893767583Q698.5327024016582 379.6835299247827 698.5327024016582 370.38039428358866ZM652.3567454410122 342.0528689042223L664.1424594134238 342.0528689042223L689.490890795329 341.5302208344923Q702.7922841699578 341.5302208344923 712.0692874076653 347.5668060398739L712.0692874076653 347.5668060398739Q723.0971616789684 354.59642257774243 723.0971616789684 367.8716835488846L723.0971616789684 367.8716835488846Q723.0971616789684 380.1800455910262 709.8219007078263 387.9413694265168L709.8219007078263 387.9413694265168Q706.7905419033923 389.71837286359886 705.4316569220944 390.21488852984237Q704.0466395373098 390.7114041960859 704.0466395373098 390.97272823095085Q704.0466395373098 391.2079198623294 705.6668485534728 391.46924389719436Q707.3131899731222 391.70443552857284 711.9386253902328 393.5859685796009Q716.59019321083 395.46750163062893 720.5884509442644 399.23056773268496L720.5884509442644 399.23056773268496Q730.8846179179457 408.01105530414907 730.8846179179457 419.0650619789387L730.8846179179457 419.0650619789387Q730.8846179179457 427.34903388415927 726.1285204834026 434.35251801854133Q721.346290645373 441.38213455640994 713.8201584412609 445.77237834214196Q706.2940262371487 450.162622127874 697.2783470343062 450.9204618289825Q688.2365354279771 451.67830153009106 682.226082626082 451.5476395126585Q676.1894974207005 451.41697749522604 670.9368843199138 451.41697749522604L670.9368843199138 451.41697749522604Q655.6232958768247 451.41697749522604 640.3097074337356 451.41697749522604L640.3097074337356 451.41697749522604Q639.8131917674921 450.65913779411756 639.8131917674921 448.4117510942785Q639.8131917674921 446.1643643944395 640.3097074337356 445.406524693331L640.3097074337356 445.406524693331Q641.3288711697091 445.406524693331 644.5954216055216 444.9100090270875L644.5954216055216 444.9100090270875Q650.1093587411732 444.15216932597895 651.1023900736602 442.40129829238344L651.1023900736602 442.40129829238344Q652.3567454410122 439.3699394879494 652.3567454410122 426.8263858144293L652.3567454410122 426.8263858144293L652.3567454410122 365.8856208839106Q652.3567454410122 353.83858287663395 651.1023900736602 350.3107084059564L651.1023900736602 350.3107084059564Q649.3515190400647 347.80199767125237 640.3097074337356 347.80199767125237L640.3097074337356 347.80199767125237Q639.8131917674921 346.80896633876534 639.8131917674921 344.56157963892633Q639.8131917674921 342.28806053560083 640.3097074337356 341.5302208344923L640.3097074337356 341.5302208344923Q646.0849686042521 342.0528689042223 652.3567454410122 342.0528689042223L652.3567454410122 342.0528689042223ZM675.431657719592 395.9901497003589L675.431657719592 432.86297101981086Q675.431657719592 440.6242948553014 676.686013086944 442.2706362749509Q677.940368454296 443.8908452911139 680.97172725873 444.15216932597895Q683.9769536596775 444.3873609573575 687.1128420780576 444.3873609573575Q690.2487304964377 444.3873609573575 693.3846189148176 443.2636676074379Q696.5205073331977 442.1399742575184 699.0292180679016 439.3699394879494L699.0292180679016 439.3699394879494Q705.0396708697967 433.62081072091934 705.0396708697967 421.8089643450212L705.0396708697967 421.8089643450212Q705.0396708697967 404.509313236958 694.0117965984937 398.23753640019794L694.0117965984937 398.23753640019794Q689.9874064615726 395.9901497003589 684.212145291056 395.9901497003589L684.212145291056 395.9901497003589L675.431657719592 395.9901497003589ZM774.0292160741576 379.91872155616124L774.0292160741576 379.91872155616124Q773.532700407914 381.17307692351324 772.278345040562 389.19572479386886L772.278345040562 389.19572479386886L772.278345040562 426.8263858144293Q772.278345040562 439.3699394879494 773.0361847416705 441.2514725389774Q773.7940244427791 443.13300559000544 775.0483798101311 443.76018327368143Q776.3027351774831 444.3873609573575 777.7922821762136 444.9100090270875L777.7922821762136 444.9100090270875Q780.3009929109176 445.406524693331 783.0710276804866 445.406524693331L783.0710276804866 445.406524693331Q783.5675433467302 446.399556025818 783.5675433467302 448.6730751291435Q783.5675433467302 450.9204618289825 783.0710276804866 451.67830153009106L783.0710276804866 451.67830153009106Q770.5274740069665 450.423946162739 761.4856624006375 450.423946162739L761.4856624006375 450.423946162739Q751.2156278304428 450.423946162739 738.6720741569227 451.67830153009106L738.6720741569227 451.67830153009106Q738.1494260871928 450.9204618289825 738.1494260871928 448.6730751291435Q738.1494260871928 446.399556025818 738.6720741569227 445.406524693331L738.6720741569227 445.406524693331Q743.9246872577091 445.406524693331 746.4333979924133 444.28283134341143Q748.9421087271173 443.13300559000544 749.4386243933609 442.40129829238344L749.4386243933609 442.40129829238344Q750.6929797607129 439.3699394879494 750.6929797607129 426.8263858144293L750.6929797607129 426.8263858144293L750.6929797607129 405.2671529380665Q750.6929797607129 403.254957869606 750.1964640944693 399.23056773268496Q749.6999484282258 395.2323099992504 749.2034327619822 394.2131462632769L749.2034327619822 394.2131462632769Q747.4525617283869 390.97272823095085 738.6720741569227 390.97272823095085L738.6720741569227 390.97272823095085Q738.1494260871928 390.7114041960859 738.2800881046251 388.3333554788143Q738.4107501220576 385.95530676154283 738.9072657883012 385.95530676154283L738.9072657883012 385.95530676154283Q748.4455930608738 385.1974670604343 757.4874046672028 382.29677027343274Q766.5030838700454 379.42220588991773 771.2853137080751 377.1748191900787L771.2853137080751 377.1748191900787Q772.017021005697 377.4100108214572 773.0361847416705 378.4291745574307Q774.0292160741576 379.42220588991773 774.0292160741576 379.91872155616124ZM747.9490773946302 348.82116140722593L747.9490773946302 348.82116140722593Q747.9490773946302 343.80373993781785 751.3201574443888 340.4065274845728Q754.717369897634 337.0354474348143 759.7347913670419 337.0354474348143L759.7347913670419 337.0354474348143Q764.7522128364499 337.0354474348143 768.253954903641 340.4065274845728Q771.7818293743185 343.80373993781785 771.7818293743185 348.82116140722593L771.7818293743185 348.82116140722593Q771.7818293743185 353.83858287663395 768.253954903641 357.340324943825Q764.7522128364499 360.8681994145025 759.7347913670419 360.8681994145025L759.7347913670419 360.8681994145025Q754.717369897634 360.8681994145025 751.3201574443888 357.340324943825Q747.9490773946302 353.83858287663395 747.9490773946302 348.82116140722593ZM822.1912356997775 383.6817876582173L822.1912356997775 383.6817876582173Q810.9020373936096 383.6817876582173 809.6476820262574 402.261926537119L809.6476820262574 402.261926537119Q809.151166360014 407.279348006527 809.151166360014 412.2967694759351Q809.151166360014 417.31419094534317 810.039668078555 423.1939817298057Q810.9020373936096 429.09990491775477 813.1755564969351 433.8560023522978L813.1755564969351 433.8560023522978Q817.931653931478 445.14520065846597 825.9543018018337 445.14520065846597L825.9543018018337 445.14520065846597Q837.7661481777318 445.14520065846597 839.2556951764623 426.8263858144293L839.2556951764623 426.8263858144293Q839.5170192113274 422.0702883798862 839.5170192113274 417.05286691047814Q839.5170192113274 412.0354454410701 838.4978554753538 406.024992639175Q837.5048241428667 399.98840743379344 835.2574374430278 395.2323099992504L835.2574374430278 395.2323099992504Q830.4752076049981 383.6817876582173 822.1912356997775 383.6817876582173ZM824.2034307682381 376.9134951552137L824.2034307682381 376.9134951552137Q832.7487267083238 376.9134951552137 839.8828728601384 379.6835299247827Q847.0431514154393 382.4274322908653 852.295764516226 387.4448537602733L852.295764516226 387.4448537602733Q863.0884471561506 397.9762123653329 863.0884471561506 413.7863164746656L863.0884471561506 413.7863164746656Q863.0884471561506 429.33509654913325 851.7992488499824 440.88561889016637L851.7992488499824 440.88561889016637Q841.0065662100578 452.1748171963345 824.464754803103 452.1748171963345L824.464754803103 452.1748171963345Q807.1389712915534 452.1748171963345 796.3724210551154 441.38213455640994Q785.5797384151906 430.5894519164853 785.5797384151906 415.0406718420176L785.5797384151906 415.0406718420176Q785.5797384151906 399.75321580241496 796.6076126864939 388.20269346138184L796.6076126864939 388.20269346138184Q807.6616193612833 376.9134951552137 824.2034307682381 376.9134951552137ZM903.2278189114149 379.91872155616124L903.2278189114149 379.91872155616124Q902.7313032451716 381.17307692351324 901.4769478778194 389.19572479386886L901.4769478778194 389.19572479386886L901.4769478778194 426.8263858144293Q901.4769478778194 439.3699394879494 902.234787578928 441.2514725389774Q902.9926272800365 443.13300559000544 904.2469826473884 443.76018327368143Q905.5013380147407 444.3873609573575 906.9908850134711 444.9100090270875L906.9908850134711 444.9100090270875Q909.4995957481751 445.406524693331 912.2696305177442 445.406524693331L912.2696305177442 445.406524693331Q912.7661461839875 446.399556025818 912.7661461839875 448.6730751291435Q912.7661461839875 450.9204618289825 912.2696305177442 451.67830153009106L912.2696305177442 451.67830153009106Q899.726076844224 450.423946162739 890.6842652378948 450.423946162739L890.6842652378948 450.423946162739Q880.4142306677002 450.423946162739 867.87067699418 451.67830153009106L867.87067699418 451.67830153009106Q867.3480289244501 450.9204618289825 867.3480289244501 448.6730751291435Q867.3480289244501 446.399556025818 867.87067699418 445.406524693331L867.87067699418 445.406524693331Q873.1232900949667 445.406524693331 875.6320008296707 444.28283134341143Q878.1407115643747 443.13300559000544 878.6372272306182 442.40129829238344L878.6372272306182 442.40129829238344Q879.8915825979702 439.3699394879494 879.8915825979702 426.8263858144293L879.8915825979702 426.8263858144293L879.8915825979702 405.2671529380665Q879.8915825979702 403.254957869606 879.3950669317267 399.23056773268496Q878.8985512654831 395.2323099992504 878.4020355992398 394.2131462632769L878.4020355992398 394.2131462632769Q876.6511645656442 390.97272823095085 867.87067699418 390.97272823095085L867.87067699418 390.97272823095085Q867.3480289244501 390.7114041960859 867.4786909418826 388.3333554788143Q867.6093529593152 385.95530676154283 868.1058686255585 385.95530676154283L868.1058686255585 385.95530676154283Q877.6441958981313 385.1974670604343 886.6860075044603 382.29677027343274Q895.701686707303 379.42220588991773 900.4839165453325 377.1748191900787L900.4839165453325 377.1748191900787Q901.2156238429545 377.4100108214572 902.234787578928 378.4291745574307Q903.2278189114149 379.42220588991773 903.2278189114149 379.91872155616124ZM877.1476802318878 348.82116140722593L877.1476802318878 348.82116140722593Q877.1476802318878 343.80373993781785 880.5187602816463 340.4065274845728Q883.9159727348913 337.0354474348143 888.9333942042992 337.0354474348143L888.9333942042992 337.0354474348143Q893.9508156737074 337.0354474348143 897.4525577408986 340.4065274845728Q900.980432211576 343.80373993781785 900.980432211576 348.82116140722593L900.980432211576 348.82116140722593Q900.980432211576 353.83858287663395 897.4525577408986 357.340324943825Q893.9508156737074 360.8681994145025 888.9333942042992 360.8681994145025L888.9333942042992 360.8681994145025Q883.9159727348913 360.8681994145025 880.5187602816463 357.340324943825Q877.1476802318878 353.83858287663395 877.1476802318878 348.82116140722593ZM937.0954138299194 450.423946162739L937.0954138299194 450.423946162739Q926.8253792597247 450.423946162739 914.2818255862046 451.67830153009106L914.2818255862046 451.67830153009106Q913.7591775164747 450.9204618289825 913.7591775164747 448.6730751291435Q913.7591775164747 446.399556025818 914.2818255862046 445.406524693331L914.2818255862046 445.406524693331Q919.5344386869913 445.406524693331 922.0431494216953 444.28283134341143Q924.5518601563992 443.13300559000544 925.0483758226428 442.40129829238344L925.0483758226428 442.40129829238344Q926.3027311899948 439.3699394879494 926.3027311899948 426.8263858144293L926.3027311899948 426.8263858144293L926.3027311899948 405.2671529380665Q926.3027311899948 403.254957869606 925.8062155237512 399.23056773268496Q925.3096998575077 395.2323099992504 924.8131841912643 394.2131462632769L924.8131841912643 394.2131462632769Q923.0623131576688 390.97272823095085 914.2818255862046 390.97272823095085L914.2818255862046 390.97272823095085Q913.7591775164747 390.7114041960859 913.8898395339072 388.3333554788143Q914.0205015513397 385.95530676154283 914.5170172175831 385.95530676154283L914.5170172175831 385.95530676154283Q924.0553444901557 385.1974670604343 933.0971560964849 382.29677027343274Q942.1128352993276 379.42220588991773 946.895065137357 377.1748191900787L946.895065137357 377.1748191900787Q947.6267724349791 377.1748191900787 948.6459361709526 378.2985125399982Q949.6389675034395 379.42220588991773 949.508305486007 379.91872155616124Q949.403775872061 380.41523722240476 949.2731138546285 381.80025460718923Q949.142451837196 383.18527199197376 948.6459361709526 385.1974670604343L948.6459361709526 385.1974670604343Q947.3915808036006 390.21488852984237 948.149420504709 390.21488852984237L948.149420504709 390.21488852984237Q948.3846121360875 390.21488852984237 948.6459361709526 389.95356449497734Q948.8811278023311 389.71837286359886 949.403775872061 389.45704882873383L949.403775872061 389.45704882873383Q952.9055179392521 385.4326586918128 957.9229394086601 382.4274322908653L957.9229394086601 382.4274322908653Q966.7034269801243 377.1748191900787 973.1058658343168 377.1748191900787Q979.5083046885093 377.1748191900787 983.8985484742414 379.5528679073502Q988.2887922599734 381.9309166246218 990.7975029946774 386.6870140591648L990.7975029946774 386.6870140591648Q995.0570847629772 395.2323099992504 995.0570847629772 416.0598355779911L995.0570847629772 416.0598355779911L995.0570847629772 426.8263858144293Q995.0570847629772 439.3699394879494 995.8149244640856 441.2514725389774Q996.5466317617077 443.13300559000544 997.9316491464922 443.76018327368143Q999.3166665312765 444.3873609573575 1001.067537564872 444.9100090270875L1001.067537564872 444.9100090270875Q1004.0727639658196 445.406524693331 1006.8427987353887 445.406524693331L1006.8427987353887 445.406524693331Q1007.6006384364971 446.399556025818 1007.4699764190648 448.6730751291435Q1007.3393144016322 450.9204618289825 1006.8427987353887 451.67830153009106L1006.8427987353887 451.67830153009106Q995.0570847629772 450.423946162739 984.2644021230524 450.423946162739L984.2644021230524 450.423946162739Q975.9804302178318 450.423946162739 963.4368765443116 451.67830153009106L963.4368765443116 451.67830153009106Q962.9403608780681 450.9204618289825 962.9403608780681 448.6730751291435Q962.9403608780681 446.399556025818 963.4368765443116 445.406524693331L963.4368765443116 445.406524693331Q965.1877475779072 445.406524693331 968.4542980137198 444.77934700965494Q971.7208484495322 444.15216932597895 972.4786881506409 441.87865022265345L972.4786881506409 441.87865022265345Q973.4717194831278 439.1347478565709 973.4717194831278 426.8263858144293L973.4717194831278 426.8263858144293L973.4717194831278 413.7863164746656Q973.4717194831278 390.45008016122085 962.4438452118247 390.45008016122085L962.4438452118247 390.45008016122085Q957.661615373795 390.45008016122085 954.1598733066041 392.72359926454635L954.1598733066041 392.72359926454635Q947.888096469844 397.2445050677109 947.888096469844 399.75321580241496L947.888096469844 399.75321580241496L947.888096469844 426.8263858144293Q947.888096469844 439.3699394879494 948.6459361709526 441.2514725389774Q949.403775872061 443.13300559000544 950.658131239413 443.76018327368143Q951.912486606765 444.3873609573575 953.4020336054955 444.9100090270875L953.4020336054955 444.9100090270875Q955.9107443401995 445.406524693331 958.6807791097685 445.406524693331L958.6807791097685 445.406524693331Q959.1772947760121 446.399556025818 959.1772947760121 448.6730751291435Q959.1772947760121 450.9204618289825 958.6807791097685 451.67830153009106L958.6807791097685 451.67830153009106Q946.1372254362484 450.423946162739 937.0954138299194 450.423946162739ZM1076.590183640858 390.21488852984237L1076.590183640858 390.21488852984237Q1069.8218911378544 389.71837286359886 1068.0448877007723 389.45704882873383Q1066.2940166671767 389.19572479386886 1066.2940166671767 389.71837286359886L1066.2940166671767 389.71837286359886Q1069.8218911378544 394.9709859643854 1069.8218911378544 400.746247134902Q1069.8218911378544 406.52150830541854 1067.548372034529 411.0424141085831Q1065.3009853346898 415.5371875082611 1061.0414035663903 418.80373794407365L1061.0414035663903 418.80373794407365Q1051.9995919600613 426.32987014818576 1039.717362321406 426.32987014818576L1039.717362321406 426.32987014818576Q1034.9351324833765 426.32987014818576 1031.1720663813205 425.5720304470773L1031.1720663813205 425.5720304470773Q1029.9177110139683 426.8263858144293 1028.532693629184 428.08074118178126Q1027.1738086478858 429.33509654913325 1027.1738086478858 430.9814379687828Q1027.1738086478858 432.60164698494583 1029.68251938259 433.72534033486534Q1032.191230117294 434.8751660882714 1036.058825833296 434.8751660882714Q1039.9525539527845 434.8751660882714 1046.3549928069772 434.74450407083884Q1052.7574316611697 434.61384205340636 1057.7748531305779 434.9796957022173Q1062.7922745999858 435.37168175451484 1066.9211943508528 437.48840643692137Q1071.0762465052064 439.6312635228144 1073.820148871289 442.40129829238344L1073.820148871289 442.40129829238344Q1079.098894375562 447.65391139317 1079.098894375562 454.18701226479504Q1079.098894375562 460.69398073293365 1075.335828273506 466.9657575696937Q1071.57276217145 473.2375344064538 1065.3009853346898 477.5232485782398L1065.3009853346898 477.5232485782398Q1051.7382679251962 487.035443447326 1034.699940851998 487.035443447326L1034.699940851998 487.035443447326Q1022.3915788098564 487.035443447326 1014.7347845883119 481.7828303465394Q1007.1041227702538 476.5040848422663 1007.1041227702538 467.9849213056672L1007.1041227702538 467.9849213056672Q1007.1041227702538 462.96749983625915 1011.7295581873643 458.5772560505271Q1016.3811260079613 454.18701226479504 1021.1372234425044 451.91349316146955L1021.1372234425044 451.91349316146955Q1016.8776416742048 450.65913779411756 1014.0030772906898 445.77237834214196Q1011.1023805036882 440.88561889016637 1011.1023805036882 435.6068733858934L1011.1023805036882 435.6068733858934Q1011.1023805036882 431.6086156524588 1024.9002895445603 423.58596778210324L1024.9002895445603 423.58596778210324Q1017.6354813753132 420.81593301253423 1013.4804292209596 415.1713338594501Q1009.3515094700927 409.5267347063661 1009.3515094700927 403.254957869606Q1009.3515094700927 396.98318103284595 1011.7295581873643 392.59293724711387Q1014.1076069046358 388.20269346138184 1018.1319970415568 384.7009513941908L1018.1319970415568 384.7009513941908Q1026.651160578156 377.67133485632223 1039.456038286541 377.67133485632223L1039.456038286541 377.67133485632223Q1050.7452365927093 377.67133485632223 1057.0170134294692 381.66959258975675L1057.0170134294692 381.66959258975675Q1057.5135290957128 382.19224065948674 1058.0100447619561 382.19224065948674L1058.0100447619561 382.19224065948674L1078.837570340697 380.1800455910262Q1080.5884413742924 381.17307692351324 1080.5884413742924 382.06157864205426Q1080.5884413742924 382.9239479571088 1079.2295563929945 386.1904983929213Q1077.84453900821 389.45704882873383 1076.590183640858 390.21488852984237ZM1045.9891391581662 453.16784852882154L1027.905515945508 453.16784852882154Q1025.1616135794254 456.6957229994991 1025.1616135794254 460.4587891015551L1025.1616135794254 460.4587891015551Q1025.1616135794254 468.7427610067757 1030.675550715077 473.2375344064538Q1036.1894878507285 477.75844020961836 1043.5849580374081 477.75844020961836Q1051.0065606275741 477.75844020961836 1054.76962672963 476.3734228248338Q1058.5326928316863 475.0145378435358 1060.7800795315252 473.00234277507525L1060.7800795315252 473.00234277507525Q1064.5431456335812 469.73579233926273 1064.5431456335812 464.2218552036112Q1064.5431456335812 458.7079180679596 1059.2644001293083 455.9378832983906Q1054.0117870285217 453.16784852882154 1045.9891391581662 453.16784852882154L1045.9891391581662 453.16784852882154ZM1038.6981985854325 383.6817876582173L1038.6981985854325 383.6817876582173Q1030.675550715077 383.6817876582173 1029.68251938259 394.2131462632769L1029.68251938259 394.2131462632769Q1029.421195347725 397.2445050677109 1029.421195347725 400.38039348609095Q1029.421195347725 403.516281904471 1030.048373031401 407.14868598909453Q1030.675550715077 410.7810900737181 1031.929906082429 413.7863164746656L1031.929906082429 413.7863164746656Q1035.1964565182416 420.3194173462907 1041.2069093201364 420.3194173462907L1041.2069093201364 420.3194173462907Q1049.2295571904922 420.3194173462907 1049.490881225357 409.26541067150106L1049.490881225357 409.26541067150106Q1049.7522052602221 406.52150830541854 1049.7522052602221 403.516281904471Q1049.7522052602221 400.48492310003695 1049.2295571904922 396.8525190154134Q1048.7330415242486 393.2201149307899 1047.4786861568966 390.21488852984237L1047.4786861568966 390.21488852984237Q1044.473459755949 383.6817876582173 1038.6981985854325 383.6817876582173ZM1108.9420991571453 404.247989202093L1108.9420991571453 404.247989202093Q1109.438614823389 404.247989202093 1112.3393116103903 404.14345958814704Q1115.2138759939055 404.0127975707145 1118.741750464583 403.7514735358495L1118.741750464583 403.7514735358495Q1126.7643983349385 403.516281904471 1130.2661404021294 402.993633834741L1130.2661404021294 402.993633834741Q1132.5396595054551 402.7584422033625 1132.5396595054551 400.119069451226Q1132.5396595054551 397.47969669908946 1132.017011435725 394.4744702981419Q1131.5204957694816 391.46924389719436 1130.2661404021294 389.19572479386886L1130.2661404021294 389.19572479386886Q1127.522238036047 383.6817876582173 1123.1319942503148 383.6817876582173Q1118.741750464583 383.6817876582173 1116.2330397298788 386.0598363754888Q1113.7243289951748 388.4640174962468 1111.9473255580929 391.70443552857284L1111.9473255580929 391.70443552857284Q1108.9420991571453 398.23753640019794 1108.9420991571453 404.247989202093ZM1148.5849552461664 408.76889500525755L1148.5849552461664 408.76889500525755Q1133.532690837942 410.0232503726096 1108.9420991571453 410.7810900737181L1108.9420991571453 410.7810900737181Q1108.9420991571453 426.0946785168072 1117.487395097231 433.3594866860543L1117.487395097231 433.3594866860543Q1123.9943635653694 438.6382321903274 1131.651157786914 438.6382321903274Q1139.3079520084586 438.6382321903274 1143.5675337767582 435.86819742075835Q1147.8271155450577 433.09816265118934 1150.5971503146268 430.3542602851068L1150.5971503146268 430.3542602851068Q1152.6093453830874 430.85077595135033 1152.6093453830874 433.09816265118934Q1152.6093453830874 435.37168175451484 1151.7208436645462 436.75669913929937Q1150.8323419460053 438.1155841205974 1148.3236312113013 440.75495687273394Q1145.8149204765973 443.39432962487047 1142.0518543745413 445.90304035957445L1142.0518543745413 445.90304035957445Q1132.5396595054551 452.43614123119954 1123.759171933991 452.43614123119954Q1114.9786843625268 452.43614123119954 1108.7069075257668 450.0319601104415Q1102.4351306890067 447.65391139317 1097.6529008509772 443.13300559000544L1097.6529008509772 443.13300559000544Q1087.3828662807825 433.3594866860543 1087.3828662807825 417.8107066115867L1087.3828662807825 417.8107066115867Q1087.3828662807825 401.739278467389 1098.4107405520858 389.71837286359886L1098.4107405520858 389.71837286359886Q1110.1964545244973 376.9134951552137 1123.9943635653694 376.9134951552137L1123.9943635653694 376.9134951552137Q1138.811436342215 376.9134951552137 1146.5727601777057 385.6939827266778L1146.5727601777057 385.6939827266778Q1153.1058610493308 392.72359926454635 1153.1058610493308 402.00060250225397L1153.1058610493308 402.00060250225397Q1153.1058610493308 404.77063727182303 1151.8515056819788 406.756699936797Q1150.5971503146268 408.76889500525755 1148.5849552461664 408.76889500525755ZM1181.6947104635622 450.423946162739L1181.6947104635622 450.423946162739Q1171.4246758933675 450.423946162739 1158.8811222198474 451.67830153009106L1158.8811222198474 451.67830153009106Q1158.3584741501174 450.9204618289825 1158.3584741501174 448.6730751291435Q1158.3584741501174 446.399556025818 1158.8811222198474 445.406524693331L1158.8811222198474 445.406524693331Q1164.1337353206338 445.406524693331 1166.642446055338 444.28283134341143Q1169.1511567900418 443.13300559000544 1169.6476724562856 442.40129829238344L1169.6476724562856 442.40129829238344Q1170.9020278236374 439.3699394879494 1170.9020278236374 426.8263858144293L1170.9020278236374 426.8263858144293L1170.9020278236374 405.2671529380665Q1170.9020278236374 403.254957869606 1170.405512157394 399.23056773268496Q1169.9089964911504 395.2323099992504 1169.412480824907 394.2131462632769L1169.412480824907 394.2131462632769Q1167.6616097913113 390.97272823095085 1158.8811222198474 390.97272823095085L1158.8811222198474 390.97272823095085Q1158.3584741501174 390.7114041960859 1158.4891361675498 388.3333554788143Q1158.6197981849823 385.95530676154283 1159.1163138512259 385.95530676154283L1159.1163138512259 385.95530676154283Q1168.6546411237985 385.1974670604343 1177.6964527301275 382.29677027343274Q1186.7121319329701 379.42220588991773 1191.4943617709996 377.1748191900787L1191.4943617709996 377.1748191900787Q1192.2260690686217 377.1748191900787 1193.2452328045952 378.2985125399982Q1194.2382641370823 379.42220588991773 1194.1076021196498 379.91872155616124Q1194.0030725057038 380.41523722240476 1193.8724104882713 381.80025460718923Q1193.7417484708387 383.18527199197376 1193.2452328045952 385.1974670604343L1193.2452328045952 385.1974670604343Q1191.9908774372432 390.21488852984237 1192.7487171383518 390.21488852984237L1192.7487171383518 390.21488852984237Q1192.98390876973 390.21488852984237 1193.2452328045952 389.95356449497734Q1193.4804244359736 389.71837286359886 1194.0030725057038 389.45704882873383L1194.0030725057038 389.45704882873383Q1197.5048145728947 385.4326586918128 1202.522236042303 382.4274322908653L1202.522236042303 382.4274322908653Q1211.302723613767 377.1748191900787 1217.7051624679596 377.1748191900787Q1224.107601322152 377.1748191900787 1228.4978451078841 379.5528679073502Q1232.8880888936162 381.9309166246218 1235.3967996283202 386.6870140591648L1235.3967996283202 386.6870140591648Q1239.6563813966197 395.2323099992504 1239.6563813966197 416.0598355779911L1239.6563813966197 416.0598355779911L1239.6563813966197 426.8263858144293Q1239.6563813966197 439.3699394879494 1240.4142210977284 441.2514725389774Q1241.1459283953502 443.13300559000544 1242.5309457801347 443.76018327368143Q1243.9159631649193 444.3873609573575 1245.6668341985148 444.9100090270875L1245.6668341985148 444.9100090270875Q1248.6720605994624 445.406524693331 1251.4420953690314 445.406524693331L1251.4420953690314 445.406524693331Q1252.1999350701399 446.399556025818 1252.0692730527073 448.6730751291435Q1251.938611035275 450.9204618289825 1251.4420953690314 451.67830153009106L1251.4420953690314 451.67830153009106Q1239.6563813966197 450.423946162739 1228.8636987566952 450.423946162739L1228.8636987566952 450.423946162739Q1220.5797268514746 450.423946162739 1208.0361731779544 451.67830153009106L1208.0361731779544 451.67830153009106Q1207.5396575117109 450.9204618289825 1207.5396575117109 448.6730751291435Q1207.5396575117109 446.399556025818 1208.0361731779544 445.406524693331L1208.0361731779544 445.406524693331Q1209.78704421155 445.406524693331 1213.0535946473624 444.77934700965494Q1216.320145083175 444.15216932597895 1217.0779847842834 441.87865022265345L1217.0779847842834 441.87865022265345Q1218.0710161167704 439.1347478565709 1218.0710161167704 426.8263858144293L1218.0710161167704 426.8263858144293L1218.0710161167704 413.7863164746656Q1218.0710161167704 390.45008016122085 1207.0431418454673 390.45008016122085L1207.0431418454673 390.45008016122085Q1202.2609120074378 390.45008016122085 1198.7591699402467 392.72359926454635L1198.7591699402467 392.72359926454635Q1192.4873931034867 397.2445050677109 1192.4873931034867 399.75321580241496L1192.4873931034867 399.75321580241496L1192.4873931034867 426.8263858144293Q1192.4873931034867 439.3699394879494 1193.2452328045952 441.2514725389774Q1194.0030725057038 443.13300559000544 1195.2574278730558 443.76018327368143Q1196.5117832404078 444.3873609573575 1198.0013302391383 444.9100090270875L1198.0013302391383 444.9100090270875Q1200.5100409738423 445.406524693331 1203.2800757434113 445.406524693331L1203.2800757434113 445.406524693331Q1203.7765914096549 446.399556025818 1203.7765914096549 448.6730751291435Q1203.7765914096549 450.9204618289825 1203.2800757434113 451.67830153009106L1203.2800757434113 451.67830153009106Q1190.7365220698912 450.423946162739 1181.6947104635622 450.423946162739ZM1287.8184010222399 379.91872155616124L1287.8184010222399 379.91872155616124Q1287.3218853559963 381.17307692351324 1286.0675299886443 389.19572479386886L1286.0675299886443 389.19572479386886L1286.0675299886443 426.8263858144293Q1286.0675299886443 439.3699394879494 1286.8253696897527 441.2514725389774Q1287.5570769873748 443.13300559000544 1288.8114323547268 443.76018327368143Q1290.065787722079 444.3873609573575 1291.5814671242958 444.9100090270875L1291.5814671242958 444.9100090270875Q1294.0901778589998 445.406524693331 1296.860212628569 445.406524693331L1296.860212628569 445.406524693331Q1297.3567282948125 446.399556025818 1297.3567282948125 448.6730751291435Q1297.3567282948125 450.9204618289825 1296.860212628569 451.67830153009106L1296.860212628569 451.67830153009106Q1284.316658955049 450.423946162739 1275.2748473487197 450.423946162739L1275.2748473487197 450.423946162739Q1264.9786803750387 450.423946162739 1252.4351267015184 451.67830153009106L1252.4351267015184 451.67830153009106Q1251.938611035275 450.9204618289825 1251.938611035275 448.6730751291435Q1251.938611035275 446.399556025818 1252.4351267015184 445.406524693331L1252.4351267015184 445.406524693331Q1257.7138722057914 445.406524693331 1260.2225829404956 444.28283134341143Q1262.7312936751994 443.13300559000544 1263.2278093414432 442.40129829238344L1263.2278093414432 442.40129829238344Q1264.482164708795 439.3699394879494 1264.482164708795 426.8263858144293L1264.482164708795 426.8263858144293L1264.482164708795 405.2671529380665Q1264.482164708795 403.254957869606 1263.9856490425516 399.23056773268496Q1263.489133376308 395.2323099992504 1262.9926177100645 394.2131462632769L1262.9926177100645 394.2131462632769Q1261.2156142729825 390.97272823095085 1252.4351267015184 390.97272823095085L1252.4351267015184 390.97272823095085Q1251.938611035275 390.7114041960859 1252.0692730527073 388.3333554788143Q1252.1999350701399 385.95530676154283 1252.6964507363834 385.95530676154283L1252.6964507363834 385.95530676154283Q1262.234778008956 385.1974670604343 1271.2504572117987 382.29677027343274Q1280.2922688181277 379.42220588991773 1285.0483662526708 377.1748191900787L1285.0483662526708 377.1748191900787Q1285.8062059537795 377.4100108214572 1286.8253696897527 378.4291745574307Q1287.8184010222399 379.42220588991773 1287.8184010222399 379.91872155616124ZM1261.7382623427125 348.82116140722593L1261.7382623427125 348.82116140722593Q1261.7382623427125 343.80373993781785 1265.109342392471 340.4065274845728Q1268.5065548457162 337.0354474348143 1273.5239763151242 337.0354474348143L1273.5239763151242 337.0354474348143Q1278.5413977845321 337.0354474348143 1282.0431398517233 340.4065274845728Q1285.5710143224007 343.80373993781785 1285.5710143224007 348.82116140722593L1285.5710143224007 348.82116140722593Q1285.5710143224007 353.83858287663395 1282.0431398517233 357.340324943825Q1278.5413977845321 360.8681994145025 1273.5239763151242 360.8681994145025L1273.5239763151242 360.8681994145025Q1268.5065548457162 360.8681994145025 1265.109342392471 357.340324943825Q1261.7382623427125 353.83858287663395 1261.7382623427125 348.82116140722593ZM1320.9281562396357 404.247989202093L1320.9281562396357 404.247989202093Q1321.4246719058792 404.247989202093 1324.3253686928808 404.14345958814704Q1327.1999330763958 404.0127975707145 1330.7278075470733 403.7514735358495L1330.7278075470733 403.7514735358495Q1338.750455417429 403.516281904471 1342.2521974846202 402.993633834741L1342.2521974846202 402.993633834741Q1344.5257165879455 402.7584422033625 1344.5257165879455 400.119069451226Q1344.5257165879455 397.47969669908946 1344.0030685182153 394.4744702981419Q1343.506552851972 391.46924389719436 1342.2521974846202 389.19572479386886L1342.2521974846202 389.19572479386886Q1339.5082951185375 383.6817876582173 1335.1180513328054 383.6817876582173Q1330.7278075470733 383.6817876582173 1328.2190968123693 386.0598363754888Q1325.7103860776654 388.4640174962468 1323.933382640583 391.70443552857284L1323.933382640583 391.70443552857284Q1320.9281562396357 398.23753640019794 1320.9281562396357 404.247989202093ZM1360.5710123286567 408.76889500525755L1360.5710123286567 408.76889500525755Q1345.5187479204326 410.0232503726096 1320.9281562396357 410.7810900737181L1320.9281562396357 410.7810900737181Q1320.9281562396357 426.0946785168072 1329.4734521797213 433.3594866860543L1329.4734521797213 433.3594866860543Q1335.98042064786 438.6382321903274 1343.6372148694045 438.6382321903274Q1351.294009090949 438.6382321903274 1355.5535908592485 435.86819742075835Q1359.813172627548 433.09816265118934 1362.5832073971171 430.3542602851068L1362.5832073971171 430.3542602851068Q1364.5954024655778 430.85077595135033 1364.5954024655778 433.09816265118934Q1364.5954024655778 435.37168175451484 1363.7069007470366 436.75669913929937Q1362.8183990284956 438.1155841205974 1360.3096882937916 440.75495687273394Q1357.8009775590876 443.39432962487047 1354.0379114570317 445.90304035957445L1354.0379114570317 445.90304035957445Q1344.5257165879455 452.43614123119954 1335.7452290164813 452.43614123119954Q1326.9647414450171 452.43614123119954 1320.6929646082574 450.0319601104415Q1314.4211877714972 447.65391139317 1309.6389579334675 443.13300559000544L1309.6389579334675 443.13300559000544Q1299.3689233632729 433.3594866860543 1299.3689233632729 417.8107066115867L1299.3689233632729 417.8107066115867Q1299.3689233632729 401.739278467389 1310.3967976345762 389.71837286359886L1310.3967976345762 389.71837286359886Q1322.1825116069879 376.9134951552137 1335.98042064786 376.9134951552137L1335.98042064786 376.9134951552137Q1350.7974934247056 376.9134951552137 1358.558817260196 385.6939827266778L1358.558817260196 385.6939827266778Q1365.091918131821 392.72359926454635 1365.091918131821 402.00060250225397L1365.091918131821 402.00060250225397Q1365.091918131821 404.77063727182303 1363.8375627644693 406.756699936797Q1362.5832073971171 408.76889500525755 1360.5710123286567 408.76889500525755ZM1393.6807675460525 450.423946162739L1393.6807675460525 450.423946162739Q1383.410732975858 450.423946162739 1370.867179302338 451.67830153009106L1370.867179302338 451.67830153009106Q1370.3445312326078 450.9204618289825 1370.3445312326078 448.6730751291435Q1370.3445312326078 446.399556025818 1370.867179302338 445.406524693331L1370.867179302338 445.406524693331Q1376.1197924031242 445.406524693331 1378.6285031378281 444.28283134341143Q1381.1372138725326 443.13300559000544 1381.633729538776 442.40129829238344L1381.633729538776 442.40129829238344Q1382.8880849061277 439.3699394879494 1382.8880849061277 426.8263858144293L1382.8880849061277 426.8263858144293L1382.8880849061277 405.2671529380665Q1382.8880849061277 403.254957869606 1382.3915692398843 399.23056773268496Q1381.895053573641 395.2323099992504 1381.3985379073972 394.2131462632769L1381.3985379073972 394.2131462632769Q1379.647666873802 390.97272823095085 1370.867179302338 390.97272823095085L1370.867179302338 390.97272823095085Q1370.3445312326078 390.7114041960859 1370.47519325004 388.3333554788143Q1370.6058552674729 385.95530676154283 1371.1023709337162 385.95530676154283L1371.1023709337162 385.95530676154283Q1380.640698206289 385.1974670604343 1389.682509812618 382.29677027343274Q1398.6981890154605 379.42220588991773 1403.4804188534902 377.1748191900787L1403.4804188534902 377.1748191900787Q1404.2121261511122 377.4100108214572 1405.2312898870857 378.4291745574307Q1406.2243212195726 379.42220588991773 1406.09365920214 379.91872155616124Q1405.9891295881941 380.41523722240476 1405.727805553329 382.19224065948674Q1405.4664815184642 383.9431116930823 1405.2312898870857 386.0598363754888Q1404.9699658522206 388.20269346138184 1404.7347742208422 390.21488852984237Q1404.4734501859773 392.2270835983029 1404.4734501859773 392.8542612819789Q1404.4734501859773 393.4814389656549 1404.9699658522206 393.5859685796009Q1405.4664815184642 393.7166305970334 1405.4664815184642 393.4814389656549L1405.4664815184642 393.4814389656549Q1409.9873873216286 385.95530676154283 1412.9926137225764 382.9239479571088L1412.9926137225764 382.9239479571088Q1419.5257145942014 376.9134951552137 1426.2940070972047 376.9134951552137L1426.2940070972047 376.9134951552137Q1433.820139301317 376.9134951552137 1436.590174070886 379.6835299247827L1436.590174070886 379.6835299247827Q1438.6023691393464 382.68875632573025 1438.6023691393464 386.3211604103538Q1438.6023691393464 389.95356449497734 1437.844529438238 392.33161321224884Q1437.0866897371295 394.7357943330069 1435.5710103349127 396.7218569979809L1435.5710103349127 396.7218569979809Q1432.565783933965 401.00757116976695 1428.5675262005304 401.00757116976695L1428.5675262005304 401.00757116976695Q1426.2940070972047 401.00757116976695 1424.673798081042 399.49189176755Q1423.0274566613923 397.9762123653329 1421.6685716800944 396.7218569979809Q1420.2835542953096 395.46750163062893 1418.8985369105253 394.34380828070937Q1417.5135195257405 393.2201149307899 1415.2661328259019 393.2201149307899Q1412.9926137225764 393.2201149307899 1411.006551057602 394.84032394695294Q1408.9943559891417 396.48666536660244 1407.4786765869246 398.73405206644145L1407.4786765869246 398.73405206644145Q1404.4734501859773 403.254957869606 1404.4734501859773 406.756699936797L1404.4734501859773 406.756699936797L1404.4734501859773 426.8263858144293Q1404.4734501859773 439.3699394879494 1405.2312898870857 441.2514725389774Q1405.9891295881941 443.13300559000544 1407.2434849555461 443.76018327368143Q1408.4978403228981 444.3873609573575 1409.9873873216286 444.9100090270875L1409.9873873216286 444.9100090270875Q1412.4960980563328 445.406524693331 1415.2661328259019 445.406524693331L1415.2661328259019 445.406524693331Q1415.7626484921454 446.399556025818 1415.7626484921454 448.6730751291435Q1415.7626484921454 450.9204618289825 1415.2661328259019 451.67830153009106L1415.2661328259019 451.67830153009106Q1402.7225791523817 450.423946162739 1393.6807675460525 450.423946162739ZM1479.996096261963 379.91872155616124L1479.996096261963 379.91872155616124Q1479.473448192233 381.17307692351324 1478.2190928248808 389.19572479386886L1478.2190928248808 389.19572479386886L1478.2190928248808 426.8263858144293Q1478.2190928248808 439.3699394879494 1478.9769325259895 441.2514725389774Q1479.7347722270981 443.13300559000544 1480.9891275944499 443.76018327368143Q1482.243482961802 444.3873609573575 1483.759162364019 444.9100090270875L1483.759162364019 444.9100090270875Q1486.267873098723 445.406524693331 1489.0117754648056 445.406524693331L1489.0117754648056 445.406524693331Q1489.5082911310492 446.399556025818 1489.5082911310492 448.6730751291435Q1489.5082911310492 450.9204618289825 1489.0117754648056 451.67830153009106L1489.0117754648056 451.67830153009106Q1476.4682217912853 450.423946162739 1467.4525425884428 450.423946162739L1467.4525425884428 450.423946162739Q1457.1563756147618 450.423946162739 1444.6128219412415 451.67830153009106L1444.6128219412415 451.67830153009106Q1444.1163062749981 450.9204618289825 1444.1163062749981 448.6730751291435Q1444.1163062749981 446.399556025818 1444.6128219412415 445.406524693331L1444.6128219412415 445.406524693331Q1449.8915674455145 445.406524693331 1452.4002781802185 444.28283134341143Q1454.9089889149227 443.13300559000544 1455.4055045811663 442.40129829238344L1455.4055045811663 442.40129829238344Q1456.6598599485183 439.3699394879494 1456.6598599485183 426.8263858144293L1456.6598599485183 426.8263858144293L1456.6598599485183 405.2671529380665Q1456.6598599485183 403.254957869606 1456.1633442822747 399.23056773268496Q1455.6406962125448 395.2323099992504 1455.1441805463012 394.2131462632769L1455.1441805463012 394.2131462632769Q1453.3933095127056 390.97272823095085 1444.6128219412415 390.97272823095085L1444.6128219412415 390.97272823095085Q1444.1163062749981 390.7114041960859 1444.2469682924304 388.3333554788143Q1444.3514979063768 385.95530676154283 1444.8741459761065 385.95530676154283L1444.8741459761065 385.95530676154283Q1454.3863408451928 385.1974670604343 1463.4281524515216 382.29677027343274Q1472.4699640578508 379.42220588991773 1477.226061492394 377.1748191900787L1477.226061492394 377.1748191900787Q1477.9839011935026 377.4100108214572 1478.9769325259895 378.4291745574307Q1479.996096261963 379.42220588991773 1479.996096261963 379.91872155616124ZM1453.8898251789492 348.82116140722593L1453.8898251789492 348.82116140722593Q1453.8898251789492 343.80373993781785 1457.2870376321941 340.4065274845728Q1460.658117681953 337.0354474348143 1465.675539151361 337.0354474348143L1465.675539151361 337.0354474348143Q1470.6929606207689 337.0354474348143 1474.2208350914464 340.4065274845728Q1477.7225771586375 343.80373993781785 1477.7225771586375 348.82116140722593L1477.7225771586375 348.82116140722593Q1477.7225771586375 353.83858287663395 1474.2208350914464 357.340324943825Q1470.6929606207689 360.8681994145025 1465.675539151361 360.8681994145025L1465.675539151361 360.8681994145025Q1460.658117681953 360.8681994145025 1457.2870376321941 357.340324943825Q1453.8898251789492 353.83858287663395 1453.8898251789492 348.82116140722593ZM1523.6372100844185 440.6242948553014L1523.6372100844185 440.6242948553014Q1526.903760520231 440.6242948553014 1528.785293571259 439.2654098740034Q1530.666826622287 437.8803924892189 1530.666826622287 437.1225527881104L1530.666826622287 437.1225527881104L1530.666826622287 414.04764050953065Q1527.896791852718 415.30199587688264 1525.022227469203 416.42568922680215Q1522.1215306822016 417.54938257672165 1519.1163042812539 419.5615776451822L1519.1163042812539 419.5615776451822Q1513.6023671456023 423.3246437472382 1513.7330291630349 429.59642058399834Q1513.8636911804672 435.86819742075835 1517.1041092127932 438.2462461380299Q1520.370659648606 440.6242948553014 1523.6372100844185 440.6242948553014ZM1559.02048440514 438.8734238217059L1560.7713554387353 438.1155841205974Q1562.0257108060873 438.8734238217059 1562.0257108060873 440.3891032239229Q1562.0257108060873 441.87865022265345 1561.267871104979 443.39432962487047L1561.267871104979 443.39432962487047Q1559.7521917027618 444.9100090270875 1555.9891256007056 447.41871976179146L1555.9891256007056 447.41871976179146Q1549.2208330977023 451.91349316146955 1544.6999272945377 451.91349316146955Q1540.2051538948597 451.91349316146955 1536.5466174067496 449.3002528128195Q1532.914213322126 446.660880060683 1531.6598579547742 443.65565365973544L1531.6598579547742 443.65565365973544Q1528.158115887583 447.1573957269265 1521.7556770333906 449.66610646163053Q1515.3532381791977 452.1748171963345 1511.8514961120068 452.1748171963345Q1508.323621641329 452.1748171963345 1504.3253639078948 450.423946162739Q1500.3009737709738 448.6730751291435 1497.557071404891 445.90304035957445L1497.557071404891 445.90304035957445Q1491.285294568131 439.6312635228144 1491.285294568131 433.3594866860543Q1491.285294568131 427.08770984929424 1493.8985349167813 423.4553057646707Q1496.5379076689176 419.82290168004715 1499.4386044559194 418.9343999615062Q1502.3131688394344 418.04589824296517 1506.2068969589227 416.55635124423463Q1510.1006250784112 415.0406718420176 1514.5953984780892 413.2898008084221L1514.5953984780892 413.2898008084221Q1520.370659648606 411.2776057399616 1530.666826622287 407.279348006527L1530.666826622287 407.279348006527L1530.666826622287 399.49189176755Q1530.666826622287 393.2201149307899 1527.896791852718 388.0720314439493Q1525.1528894866353 382.9239479571088 1520.631983683471 382.9239479571088Q1516.1110778803063 382.9239479571088 1514.2295448292784 386.9483380940298Q1512.3480117782503 390.97272823095085 1511.5901720771417 395.2323099992504L1511.5901720771417 395.2323099992504Q1509.5779770086813 404.0127975707145 1501.8166531731906 404.0127975707145L1501.8166531731906 404.0127975707145Q1498.5501027373782 404.0127975707145 1495.9107299852417 401.8699404848215Q1493.2713572331052 399.75321580241496 1493.2713572331052 397.2445050677109L1493.2713572331052 397.2445050677109Q1493.2713572331052 393.7166305970334 1495.5448763364307 389.19572479386886L1495.5448763364307 389.19572479386886Q1498.2887787025131 386.4518224277863 1504.560555539273 383.18527199197376L1504.560555539273 383.18527199197376Q1517.3654332476583 376.65217112034867 1527.530938203907 376.65217112034867Q1537.6964431601557 376.65217112034867 1544.8305893119702 383.6817876582173Q1551.9908678672714 390.7114041960859 1551.9908678672714 402.00060250225397L1551.9908678672714 402.00060250225397L1551.9908678672714 432.86297101981086Q1551.9908678672714 436.36471308700186 1553.2452232346232 438.01105450665136Q1554.4995786019754 439.6312635228144 1556.1197876181384 439.6312635228144Q1557.7661290377878 439.6312635228144 1559.02048440514 438.8734238217059L1559.02048440514 438.8734238217059Z " fill="#f7f7f9" transform="matrix(0.5601700495382153,0,0,0.5601700495382153,0,69.19009558896616)"/></g></svg>